<?xml version="1.0" standalone="no"?>
<!DOCTYPE svg PUBLIC "-//W3C//DTD SVG 20010904//EN"
 "http://www.w3.org/TR/2001/REC-SVG-20010904/DTD/svg10.dtd">
<svg version="1.0" xmlns="http://www.w3.org/2000/svg"
 width="700.000000pt" height="700.000000pt" viewBox="0 0 700.000000 700.000000"
 preserveAspectRatio="xMidYMid meet">
<metadata>
Created by potrace 1.11, written by Peter Selinger 2001-2013
</metadata>
<g transform="translate(0.000000,700.000000) scale(0.100000,-0.100000)"
fill="#000000" stroke="none">
<path d="M2195 6459 c-413 -70 -736 -287 -996 -669 -24 -36 -49 -74 -55 -85
-87 -159 -142 -283 -190 -430 l-33 -100 -83 -32 c-159 -63 -342 -162 -443
-241 -71 -55 -170 -163 -212 -230 -166 -266 -117 -575 141 -877 72 -84 144
-154 263 -257 40 -34 274 -196 334 -231 26 -14 49 -36 52 -48 3 -12 -5 -65
-18 -118 -30 -121 -71 -337 -80 -416 -4 -33 -9 -71 -11 -85 -10 -62 -17 -227
-17 -360 4 -923 465 -1594 1198 -1745 183 -37 418 -41 645 -10 46 7 233 46
241 51 4 2 39 -12 77 -31 272 -134 539 -215 762 -231 41 -3 80 -7 87 -9 7 -2
15 0 18 6 4 5 3 9 -2 7 -8 -2 -126 11 -153 18 -188 43 -400 125 -588 226 l-83
45 128 48 c567 211 1146 643 1634 1220 105 125 267 341 345 462 65 101 53 94
194 108 30 3 65 8 78 11 23 5 24 3 25 -241 0 -51 -12 -268 -18 -315 -8 -66
-24 -171 -30 -200 -3 -14 -8 -41 -11 -60 -39 -228 -183 -594 -290 -737 -31
-41 -31 -53 -1 -16 74 88 228 360 252 443 4 14 11 30 15 35 14 18 70 197 100
315 29 117 55 261 65 360 3 30 8 77 11 103 3 26 7 112 9 190 l3 142 43 8 c304
57 587 142 777 232 40 19 76 35 79 35 15 0 253 156 253 167 0 2 -14 -5 -30
-17 -144 -102 -483 -235 -709 -277 -14 -2 -27 -6 -30 -8 -4 -2 -58 -13 -121
-24 -63 -12 -124 -23 -135 -25 -11 -2 -45 -7 -76 -10 l-56 -7 -2 75 c-1 40 -3
83 -6 94 -7 37 -18 176 -18 232 -1 46 10 79 62 199 137 319 262 752 297 1031
4 36 8 67 9 70 6 21 21 199 24 278 1 18 4 20 19 13 9 -6 64 -35 122 -67 403
-218 696 -461 857 -710 10 -15 10 -12 0 11 -18 45 -82 141 -147 220 -155 190
-431 405 -732 573 l-118 65 -1 86 c0 83 -1 102 -14 221 -16 151 -35 249 -74
387 -76 262 -184 468 -346 656 -37 42 -68 77 -71 77 -2 0 16 -26 40 -57 107
-143 177 -277 235 -457 43 -131 75 -273 86 -376 4 -36 9 -74 12 -85 7 -36 10
-385 3 -385 -4 0 -52 21 -106 46 -55 25 -108 49 -119 54 -281 118 -764 283
-898 307 -15 3 -32 13 -37 23 -6 10 -16 24 -23 32 -7 7 -37 45 -66 83 -290
374 -671 716 -1026 920 l-50 29 90 43 c130 61 319 129 459 164 66 17 123 33
126 36 3 3 -8 3 -25 -1 -16 -3 -43 -8 -60 -11 -159 -27 -302 -66 -456 -124
-57 -22 -124 -48 -149 -58 l-44 -20 -106 50 c-101 48 -295 122 -342 131 -13 2
-59 13 -103 24 -200 51 -468 63 -660 31z m385 -13 c212 -24 496 -117 697 -229
l52 -28 -87 -46 c-323 -170 -666 -421 -935 -686 -32 -31 -61 -57 -65 -58 -4 0
-14 -2 -22 -4 -9 -1 -72 -6 -140 -9 -124 -7 -145 -9 -290 -26 -41 -5 -97 -12
-125 -15 -27 -3 -72 -10 -100 -15 -27 -5 -61 -11 -75 -14 -89 -14 -211 -40
-308 -65 -98 -25 -112 -27 -108 -13 3 10 10 37 16 62 35 139 124 351 205 487
78 130 143 214 244 313 243 240 538 359 876 354 55 0 129 -4 165 -8z m918
-358 c294 -190 619 -500 881 -838 55 -71 61 -82 40 -78 -83 19 -360 77 -389
82 -19 3 -60 10 -90 16 -62 12 -46 10 -280 44 -96 14 -209 28 -250 32 -41 3
-84 8 -95 10 -11 2 -54 7 -95 10 -41 3 -93 7 -115 9 -105 10 -338 19 -502 19
-101 1 -183 5 -183 10 0 4 21 29 48 53 153 146 196 185 277 253 110 92 224
179 330 251 119 80 298 188 313 188 8 1 57 -27 110 -61z m-1380 -827 c-29 -30
-55 -58 -58 -61 -3 -3 -41 -48 -86 -100 -248 -293 -472 -629 -646 -971 -86
-168 -92 -181 -183 -403 l-53 -129 -10 39 c-13 49 -20 86 -27 144 -3 25 -10
68 -15 95 -33 179 -45 341 -45 625 0 214 6 358 19 425 3 18 7 41 22 135 16
109 26 121 99 133 17 3 53 10 80 16 77 17 205 41 250 46 22 3 65 10 96 15 31
6 87 13 125 16 38 2 80 7 94 9 14 3 88 8 165 11 77 4 141 7 142 8 1 1 20 2 43
2 l41 0 -53 -55z m757 44 c22 -2 78 -6 125 -9 102 -8 196 -16 230 -21 14 -2
54 -6 90 -10 36 -3 76 -8 90 -10 14 -3 45 -7 70 -10 25 -2 92 -11 150 -20 58
-9 114 -18 125 -19 55 -8 124 -20 265 -48 85 -16 166 -32 180 -34 88 -17 326
-76 333 -83 5 -5 14 -18 21 -29 6 -12 36 -58 67 -104 189 -279 404 -705 528
-1044 61 -166 147 -444 167 -539 2 -11 15 -65 27 -120 l23 -101 -39 -84 c-48
-104 -178 -340 -244 -443 l-48 -76 -345 4 c-190 3 -363 7 -385 9 -22 2 -88 7
-148 11 -59 3 -115 8 -125 10 -9 1 -51 6 -92 9 -64 6 -189 21 -355 42 -22 2
-96 14 -165 25 -69 12 -134 22 -145 24 -38 5 -100 17 -215 40 -14 3 -40 8 -59
11 -196 33 -937 237 -1066 294 -11 5 -70 27 -131 49 -250 89 -628 260 -644
292 -11 19 16 105 103 324 179 452 488 981 786 1346 26 30 62 75 81 99 19 24
40 48 45 54 6 6 44 49 85 95 l75 84 250 -7 c138 -4 268 -9 290 -11z m-1980
-240 c-8 -33 -17 -76 -20 -95 -22 -133 -36 -238 -42 -320 -14 -178 -8 -561 11
-705 2 -16 7 -55 10 -86 4 -31 9 -67 11 -80 3 -13 7 -41 10 -64 3 -22 8 -47
10 -55 2 -8 7 -33 10 -55 3 -22 12 -67 19 -100 8 -33 13 -61 12 -62 -9 -9
-312 204 -412 289 -29 25 -138 136 -179 183 -47 53 -132 188 -160 255 -141
335 29 645 470 855 70 33 257 106 262 101 1 0 -5 -28 -12 -61z m3923 -96 c273
-84 533 -173 657 -224 22 -9 51 -21 65 -27 14 -5 75 -31 135 -57 l110 -47 -3
-60 c-3 -55 -25 -222 -37 -289 -9 -47 -45 -218 -51 -240 -3 -11 -7 -31 -10
-45 -19 -103 -169 -552 -212 -635 -15 -29 -15 -29 -52 118 -127 497 -346 997
-626 1430 -35 53 -59 97 -53 97 5 0 40 -9 77 -21z m-3404 -1919 c3 0 34 -14
69 -30 210 -97 619 -240 942 -328 231 -64 643 -154 810 -177 28 -4 59 -9 70
-11 18 -4 101 -16 195 -29 68 -9 116 -15 175 -21 33 -3 67 -7 75 -9 8 -2 60
-7 115 -11 55 -3 108 -8 118 -10 57 -10 348 -19 648 -19 l346 1 -101 -141
c-90 -124 -283 -373 -312 -400 -5 -5 -50 -54 -100 -109 -238 -263 -563 -550
-819 -723 -179 -120 -464 -271 -622 -329 -74 -27 -75 -27 -106 -9 -46 27 -230
166 -306 232 -123 106 -373 363 -474 488 -304 375 -560 802 -752 1250 -45 106
-175 458 -175 475 0 5 45 -14 100 -41 55 -27 102 -49 104 -49z m-285 -270 c15
-46 150 -344 201 -445 189 -369 407 -690 682 -1005 118 -136 318 -326 468
-445 115 -91 324 -235 341 -235 33 0 -14 -20 -91 -39 -223 -54 -490 -73 -665
-45 -435 68 -748 308 -940 719 -120 256 -179 544 -179 870 0 113 12 337 19
357 2 7 6 36 9 63 7 88 25 187 71 395 2 8 4 17 5 20 1 5 63 -158 79 -210z
m4307 -157 l7 -93 -39 -1 c-22 0 -58 -2 -81 -5 -46 -5 -51 0 -30 31 8 11 35
61 62 110 26 50 50 94 53 100 9 15 21 -43 28 -142z"/>
</g>
</svg>
